<svg xmlns="http://www.w3.org/2000/svg" viewBox="-24 -24 420 108"><rect x="0" y="0" width="13.0" height="60.0" fill="#131316"/><rect x="0" y="0" width="60.0" height="13.0" fill="#2038E6"/><rect x="0" y="23.5" width="47.0" height="13.0" fill="#131316"/><rect x="0" y="47.0" width="34.0" height="13.0" fill="#131316"/><g transform="translate(88,0)"><rect x="0" y="0" width="13" height="60" fill="#131316"/><rect x="0" y="0" width="44" height="13" fill="#131316"/><rect x="0" y="23.5" width="36" height="13" fill="#131316"/><rect x="0" y="47" width="28" height="13" fill="#131316"/><rect x="60" y="0" width="13" height="60" fill="#131316"/><rect x="60" y="47" width="44" height="13" fill="#131316"/><polygon points="120,0 133,0 148.5,30 135.5,30" fill="#131316"/><polygon points="151,0 164,0 148.5,30 135.5,30" fill="#131316"/><rect x="135.5" y="30" width="13" height="30" fill="#131316"/><path fill-rule="evenodd" fill="#131316" d="M180 0H224V60H180Z M193 13H211V47H193Z"/><rect x="240" y="0" width="13" height="60" fill="#131316"/><rect x="271" y="0" width="13" height="60" fill="#131316"/><polygon points="240,0 253,0 284,60 271,60" fill="#131316"/></g></svg>