<svg xmlns="http://www.w3.org/2000/svg" viewBox="0 0 364 140"><rect x="0" y="0" width="364" height="140" fill="#0F0F12"/><g transform="translate(40,40)"><rect x="0" y="0" width="13" height="60" fill="#EFEDE6"/><rect x="0" y="0" width="44" height="13" fill="#EFEDE6"/><rect x="0" y="23.5" width="36" height="13" fill="#EFEDE6"/><rect x="0" y="47" width="28" height="13" fill="#EFEDE6"/><rect x="60" y="0" width="13" height="60" fill="#EFEDE6"/><rect x="60" y="47" width="44" height="13" fill="#EFEDE6"/><polygon points="120,0 133,0 148.5,30 135.5,30" fill="#EFEDE6"/><polygon points="151,0 164,0 148.5,30 135.5,30" fill="#EFEDE6"/><rect x="135.5" y="30" width="13" height="30" fill="#EFEDE6"/><path fill-rule="evenodd" fill="#EFEDE6" d="M180 0H224V60H180Z M193 13H211V47H193Z"/><rect x="240" y="0" width="13" height="60" fill="#EFEDE6"/><rect x="271" y="0" width="13" height="60" fill="#EFEDE6"/><polygon points="240,0 253,0 284,60 271,60" fill="#EFEDE6"/></g></svg>